<svg width="119" height="32" viewBox="0 0 119 32" fill="none" xmlns="http://www.w3.org/2000/svg">
<path fill-rule="evenodd" clip-rule="evenodd" d="M17.5098 2.97188C17.5098 4.19523 16.4427 5.24382 15.1978 5.24382C13.953 5.24382 12.8859 4.19523 12.8859 2.97188C12.8859 1.74854 13.953 0.699951 15.1978 0.699951C16.4427 0.699951 17.5098 1.74854 17.5098 2.97188ZM15.1978 7.10797C13.8344 7.10797 12.7674 8.15655 12.7674 9.49641C12.7674 10.8363 13.8344 11.8849 15.1978 11.8849C16.5613 11.8849 17.6283 10.8363 17.6283 9.49641C17.6283 8.0983 16.5613 7.10797 15.1978 7.10797ZM12.7081 15.9044C12.7081 14.5646 13.8344 13.4577 15.1978 13.4577C16.5613 13.4577 17.7469 14.5646 17.6876 15.9044C17.6876 17.2443 16.5613 18.3511 15.1978 18.3511C13.8344 18.3511 12.7081 17.2443 12.7081 15.9044ZM15.1978 19.924C13.8344 19.924 12.7674 20.9726 12.7674 22.3125C12.7674 23.6523 13.8344 24.7009 15.1978 24.7009C16.5613 24.7009 17.6283 23.6523 17.6283 22.3125C17.6283 21.0308 16.5613 19.924 15.1978 19.924ZM12.8859 28.7787C12.8859 27.5554 13.953 26.5068 15.1978 26.5068C16.502 26.5068 17.5098 27.5554 17.5098 28.7787C17.5098 30.0021 16.4427 31.0507 15.1978 31.0507C13.953 31.0507 12.8859 30.0021 12.8859 28.7787ZM21.6001 6.8167C20.1181 6.8167 18.8732 8.04005 18.8732 9.49641C18.8732 10.9528 20.1181 12.1761 21.6001 12.1761C23.0821 12.1761 24.327 10.9528 24.327 9.49641C24.327 8.04005 23.0821 6.8167 21.6001 6.8167ZM18.7546 15.9627C18.7546 14.3898 20.0588 13.1665 21.6001 13.1665C23.1414 13.1665 24.4455 14.3898 24.4455 15.9627C24.4455 17.5356 23.1414 18.7589 21.6001 18.7589C19.9995 18.7589 18.7546 17.4773 18.7546 15.9627ZM21.6001 19.6327C20.1181 19.6327 18.8732 20.8561 18.8732 22.3124C18.8732 23.7688 20.1181 24.9922 21.6001 24.9922C23.0821 24.9922 24.327 23.7688 24.327 22.3124C24.327 20.8561 23.0821 19.6327 21.6001 19.6327ZM25.0383 15.9044C25.0383 14.1568 26.5203 12.8169 28.1802 12.8169C29.84 12.8169 31.2034 14.1568 31.322 15.9044C31.322 17.6521 29.9586 18.9919 28.1802 18.9919C26.4018 18.9919 25.0383 17.5356 25.0383 15.9044ZM8.73632 7.39924C7.61 7.39924 6.66152 8.33132 6.66152 9.43816C6.66152 10.545 7.61 11.4771 8.73632 11.4771C9.86264 11.4771 10.8111 10.545 10.8111 9.43816C10.8111 8.33132 9.92192 7.39924 8.73632 7.39924ZM6.54296 15.9044C6.54296 14.6811 7.49144 13.749 8.73632 13.749C9.9812 13.749 10.9297 14.6811 10.9297 15.9044C10.9297 17.1278 9.9812 18.0599 8.73632 18.0599C7.49144 18.0599 6.54296 17.1278 6.54296 15.9044ZM8.73632 20.2153C7.61 20.2153 6.66152 21.1474 6.66152 22.2542C6.66152 23.361 7.61 24.2931 8.73632 24.2931C9.86264 24.2931 10.8111 23.361 10.8111 22.2542C10.8111 21.1474 9.92192 20.2153 8.73632 20.2153ZM0.377838 15.9627C0.377838 14.9141 1.20776 14.0985 2.2748 14.0985C3.34184 14.0985 4.17176 14.9141 4.17176 15.9627C4.17176 17.0113 3.34184 17.8268 2.2748 17.8268C1.20776 17.8268 0.377838 17.0113 0.377838 15.9627Z" fill="#8C98A4"/>
<path d="M54.9154 11.9431C54.6783 11.9431 54.5005 12.1761 54.5005 12.3509V28.4874C54.5005 28.7205 54.7376 28.8952 54.9154 28.8952H56.8717C57.1088 28.8952 57.2866 28.6622 57.2866 28.4874V12.3509C57.2866 12.1179 57.0495 11.9431 56.8717 11.9431H54.9154Z" fill="#8C98A4"/>
<path d="M55.9825 5.12731C54.9154 5.12731 54.0855 5.94288 54.0855 6.99146C54.0855 8.04005 54.9154 8.85561 55.9825 8.85561C57.0495 8.85561 57.8794 8.04005 57.8794 6.99146C57.8794 5.94288 56.9902 5.12731 55.9825 5.12731Z" fill="#8C98A4"/>
<path d="M97.0042 11.9431C96.7671 11.9431 96.5893 12.1761 96.5893 12.3509V28.4874C96.5893 28.7205 96.8264 28.8952 97.0042 28.8952H98.9605C99.1976 28.8952 99.3754 28.6622 99.3754 28.4874V12.3509C99.3754 12.1179 99.1383 11.9431 98.9605 11.9431H97.0042Z" fill="#8C98A4"/>
<path d="M97.9527 5.12731C96.8857 5.12731 96.0558 5.94288 96.0558 6.99146C96.0558 8.04005 96.8857 8.85561 97.9527 8.85561C99.0198 8.85561 99.8497 8.04005 99.8497 6.99146C99.8497 5.94288 99.0198 5.12731 97.9527 5.12731Z" fill="#8C98A4"/>
<path fill-rule="evenodd" clip-rule="evenodd" d="M117.968 27.1285C117.956 27.1852 117.926 27.2538 117.854 27.3224C117.854 27.4389 117.73 27.5554 117.483 27.4971L117.578 27.6061C117.565 27.6109 117.554 27.6136 117.545 27.6136H117.359L117.792 28.1379H118.039L117.578 27.6061C117.598 27.5982 117.622 27.5849 117.649 27.5702C117.709 27.5371 117.781 27.4971 117.854 27.4971C117.977 27.4971 117.977 27.3806 117.977 27.2641C117.977 27.2162 117.977 27.1683 117.968 27.1285ZM117.112 27.6136V26.9146H117.545C117.668 26.9146 117.792 26.9146 117.854 27.0311C117.926 27.0311 117.956 27.0715 117.968 27.1285C117.977 27.0889 117.977 27.055 117.977 27.0311V26.9146C117.977 26.9146 117.977 26.7981 117.854 26.7981C117.854 26.7981 117.73 26.6816 117.606 26.6816H116.804V28.1379H117.051V27.6136H117.112Z" fill="#8C98A4"/>
<path fill-rule="evenodd" clip-rule="evenodd" d="M116.033 27.4389C116.033 26.7398 116.685 26.099 117.397 26.099C118.167 26.099 118.76 26.6816 118.76 27.4389C118.76 28.1379 118.108 28.7787 117.397 28.7787C116.685 28.7787 116.033 28.1379 116.033 27.4389ZM116.152 27.4389C116.152 28.1379 116.685 28.6622 117.397 28.6622C118.049 28.6622 118.641 28.1379 118.641 27.4389C118.641 26.7398 118.108 26.2155 117.397 26.2155C116.685 26.2155 116.152 26.7398 116.152 27.4389Z" fill="#8C98A4"/>
<path d="M71.2174 14.5646C71.4546 14.5646 71.6324 14.3316 71.6324 14.1568V12.2344C71.6324 12.0014 71.3953 11.8266 71.2174 11.8266H67.0086V5.6516C67.0086 5.41858 66.7714 5.24382 66.5936 5.24382H64.6374C64.4002 5.24382 64.2224 5.47684 64.2224 5.6516V11.8266H62.1476C61.9105 11.8266 61.7326 12.0596 61.7326 12.2344V14.1568C61.7326 14.3898 61.9698 14.5646 62.1476 14.5646H64.2224V23.8853C64.2224 26.7398 66.1786 28.604 69.0241 28.604H71.0989C71.336 28.604 71.5138 28.3709 71.5138 28.1962V26.2738C71.5138 26.0408 71.2767 25.866 71.0989 25.866H69.3205C67.957 25.866 67.0086 24.9339 67.0086 23.4775V14.5063H71.2174V14.5646Z" fill="#8C98A4"/>
<path d="M112.832 14.5646C113.069 14.5646 113.247 14.3316 113.247 14.1568V12.2344C113.247 12.0014 113.01 11.8266 112.832 11.8266H108.623V5.6516C108.623 5.41858 108.386 5.24382 108.208 5.24382H106.252C106.015 5.24382 105.837 5.47684 105.837 5.6516V11.8266H103.762C103.525 11.8266 103.347 12.0596 103.347 12.2344V14.1568C103.347 14.3898 103.584 14.5646 103.762 14.5646H105.837V23.8853C105.837 26.7398 107.793 28.604 110.639 28.604H112.713C112.951 28.604 113.128 28.3709 113.128 28.1962V26.2738C113.128 26.0408 112.891 25.866 112.713 25.866H110.816C109.453 25.866 108.505 24.9339 108.505 23.4775V14.5063H112.773L112.832 14.5646Z" fill="#8C98A4"/>
<path d="M42.4666 14.5646V28.3127C42.4666 28.5457 42.7038 28.7205 42.8816 28.7205H44.8378C45.075 28.7205 45.2528 28.4874 45.2528 28.3127V14.5646H49.8766C50.1138 14.5646 50.2916 14.3316 50.2916 14.1568V12.2344C50.2916 12.0014 50.0545 11.8266 49.8766 11.8266H45.2528V8.21481C45.2528 6.75844 46.3198 5.76811 47.5647 5.76811H49.8766C50.1138 5.76811 50.2916 5.53509 50.2916 5.36033V3.43792C50.2916 3.2049 50.0545 3.03014 49.8766 3.03014H47.6833C44.7786 3.03014 42.4666 5.41858 42.4666 8.15655V11.8266H40.3918C40.1547 11.8266 39.9769 12.0596 39.9769 12.2344V14.1568C39.9769 14.3898 40.214 14.5646 40.3918 14.5646H42.4666Z" fill="#8C98A4"/>
<path fill-rule="evenodd" clip-rule="evenodd" d="M84.3183 11.3023C86.6302 11.3023 88.8236 12.2344 90.3649 13.8655C91.9062 15.4966 92.7361 17.7686 92.7361 20.2735C92.7361 26.5068 88.4086 29.303 84.259 29.303C80.0502 29.303 75.782 26.565 75.782 20.2735V3.32141C75.782 3.14665 75.9598 2.91363 76.197 2.91363H78.1532C78.331 2.91363 78.5682 3.08839 78.5682 3.32141V13.5742C79.9316 12.2344 82.125 11.3023 84.3183 11.3023ZM78.5089 20.3318C78.5089 23.4193 80.0502 26.6816 84.259 26.6816C88.4679 26.6816 89.9499 23.4193 90.0092 20.3318C90.0092 16.6035 87.6973 14.0403 84.259 14.0403C80.8208 14.0403 78.5089 16.5452 78.5089 20.3318Z" fill="#8C98A4"/>
</svg>
