<svg width="112" height="17" viewBox="0 0 112 17" fill="none" xmlns="http://www.w3.org/2000/svg">
<path d="M4.60742 0.922729L8.625 12.2665L12.6211 0.922729H16.8535V16.5634H13.6201V12.288L13.9424 4.90808L9.7207 16.5634H7.50781L3.29688 4.91882L3.61914 12.288V16.5634H0.396484V0.922729H4.60742ZM22.9402 16.5634H19.825V4.94031H22.9402V16.5634ZM19.6424 1.9325C19.6424 1.467 19.7964 1.08386 20.1043 0.783081C20.4194 0.4823 20.8455 0.331909 21.3826 0.331909C21.9126 0.331909 22.3351 0.4823 22.6502 0.783081C22.9653 1.08386 23.1229 1.467 23.1229 1.9325C23.1229 2.40515 22.9617 2.79187 22.6395 3.09265C22.3243 3.39343 21.9054 3.54382 21.3826 3.54382C20.8598 3.54382 20.4373 3.39343 20.115 3.09265C19.7999 2.79187 19.6424 2.40515 19.6424 1.9325ZM30.5416 14.2753C31.1145 14.2753 31.58 14.1177 31.9381 13.8026C32.2962 13.4875 32.4824 13.0686 32.4967 12.5458H35.4078C35.4007 13.3335 35.1858 14.0568 34.7633 14.7157C34.3408 15.3674 33.7607 15.8759 33.023 16.2411C32.2926 16.5992 31.4833 16.7782 30.5953 16.7782C28.9339 16.7782 27.6233 16.2518 26.6637 15.1991C25.704 14.1392 25.2242 12.6783 25.2242 10.8163V10.6122C25.2242 8.82182 25.7005 7.39311 26.6529 6.32605C27.6054 5.25899 28.9124 4.72546 30.5738 4.72546C32.0276 4.72546 33.1913 5.14083 34.065 5.97156C34.9459 6.79513 35.3935 7.89441 35.4078 9.26941H32.4967C32.4824 8.66785 32.2962 8.18087 31.9381 7.80847C31.58 7.42891 31.1074 7.23914 30.5201 7.23914C29.7968 7.23914 29.249 7.50411 28.8766 8.03406C28.5113 8.55684 28.3287 9.40906 28.3287 10.5907V10.913C28.3287 12.1089 28.5113 12.9683 28.8766 13.4911C29.2418 14.0139 29.7968 14.2753 30.5416 14.2753ZM43.9115 7.85144C43.489 7.79415 43.1166 7.7655 42.7943 7.7655C41.6199 7.7655 40.85 8.16296 40.4848 8.95789V16.5634H37.3803V4.94031H40.3129L40.3988 6.32605C41.0219 5.25899 41.8848 4.72546 42.9877 4.72546C43.3314 4.72546 43.6537 4.77201 43.9545 4.86511L43.9115 7.85144ZM44.7453 10.6444C44.7453 9.49141 44.9673 8.46375 45.4113 7.5614C45.8553 6.65906 46.4927 5.96082 47.3234 5.46667C48.1613 4.97253 49.1317 4.72546 50.2346 4.72546C51.8029 4.72546 53.0812 5.20528 54.0695 6.16492C55.065 7.12455 55.62 8.42794 55.7346 10.0751L55.7561 10.87C55.7561 12.6532 55.2583 14.0855 54.2629 15.1669C53.2674 16.2411 51.9318 16.7782 50.2561 16.7782C48.5803 16.7782 47.2411 16.2411 46.2385 15.1669C45.243 14.0927 44.7453 12.6317 44.7453 10.7841V10.6444ZM47.8498 10.87C47.8498 11.9729 48.0575 12.8179 48.4729 13.4052C48.8882 13.9852 49.4826 14.2753 50.2561 14.2753C51.008 14.2753 51.5952 13.9888 52.0178 13.4159C52.4403 12.8358 52.6516 11.912 52.6516 10.6444C52.6516 9.56303 52.4403 8.72514 52.0178 8.13074C51.5952 7.53634 51.0008 7.23914 50.2346 7.23914C49.4755 7.23914 48.8882 7.53634 48.4729 8.13074C48.0575 8.71798 47.8498 9.63106 47.8498 10.87ZM64.1631 13.3514C64.1631 12.9719 63.9733 12.6747 63.5938 12.4598C63.2214 12.2378 62.6198 12.0409 61.7891 11.869C59.0247 11.2889 57.6426 10.1145 57.6426 8.34558C57.6426 7.31433 58.0687 6.45496 58.9209 5.76746C59.7803 5.07279 60.901 4.72546 62.2832 4.72546C63.7585 4.72546 64.9365 5.07279 65.8174 5.76746C66.7054 6.46212 67.1494 7.36446 67.1494 8.47449H64.0449C64.0449 8.03048 63.9017 7.66524 63.6152 7.37878C63.3288 7.08516 62.8812 6.93835 62.2725 6.93835C61.7497 6.93835 61.3451 7.05652 61.0586 7.29285C60.7721 7.52917 60.6289 7.82996 60.6289 8.19519C60.6289 8.53894 60.79 8.81824 61.1123 9.03308C61.4417 9.24076 61.9932 9.42338 62.7666 9.58093C63.54 9.73132 64.1917 9.9032 64.7217 10.0966C66.3617 10.6981 67.1816 11.7401 67.1816 13.2225C67.1816 14.2824 66.7269 15.1418 65.8174 15.8007C64.9079 16.4524 63.7334 16.7782 62.2939 16.7782C61.32 16.7782 60.4535 16.6063 59.6943 16.2626C58.9424 15.9117 58.3516 15.4354 57.9219 14.8339C57.4922 14.2251 57.2773 13.5699 57.2773 12.868H60.2207C60.2493 13.4195 60.4535 13.842 60.833 14.1356C61.2126 14.4292 61.721 14.576 62.3584 14.576C62.9528 14.576 63.4004 14.465 63.7012 14.243C64.0091 14.0139 64.1631 13.7167 64.1631 13.3514ZM73.1072 2.08289V4.94031H75.0945V7.21765H73.1072V13.0184C73.1072 13.4481 73.1896 13.7561 73.3543 13.9423C73.519 14.1285 73.8341 14.2216 74.2996 14.2216C74.6434 14.2216 74.9477 14.1965 75.2127 14.1464V16.4989C74.604 16.6851 73.9773 16.7782 73.3328 16.7782C71.1557 16.7782 70.0457 15.6789 70.0027 13.4803V7.21765H68.3055V4.94031H70.0027V2.08289H73.1072ZM76.2184 10.6444C76.2184 9.49141 76.4404 8.46375 76.8844 7.5614C77.3284 6.65906 77.9658 5.96082 78.7965 5.46667C79.6344 4.97253 80.6048 4.72546 81.7076 4.72546C83.276 4.72546 84.5543 5.20528 85.5426 6.16492C86.538 7.12455 87.093 8.42794 87.2076 10.0751L87.2291 10.87C87.2291 12.6532 86.7314 14.0855 85.7359 15.1669C84.7405 16.2411 83.4049 16.7782 81.7291 16.7782C80.0533 16.7782 78.7141 16.2411 77.7115 15.1669C76.7161 14.0927 76.2184 12.6317 76.2184 10.7841V10.6444ZM79.3229 10.87C79.3229 11.9729 79.5305 12.8179 79.9459 13.4052C80.3613 13.9852 80.9557 14.2753 81.7291 14.2753C82.4811 14.2753 83.0683 13.9888 83.4908 13.4159C83.9133 12.8358 84.1246 11.912 84.1246 10.6444C84.1246 9.56303 83.9133 8.72514 83.4908 8.13074C83.0683 7.53634 82.4739 7.23914 81.7076 7.23914C80.9485 7.23914 80.3613 7.53634 79.9459 8.13074C79.5305 8.71798 79.3229 9.63106 79.3229 10.87ZM94.1752 14.2753C94.7481 14.2753 95.2136 14.1177 95.5717 13.8026C95.9298 13.4875 96.1159 13.0686 96.1303 12.5458H99.0414C99.0342 13.3335 98.8194 14.0568 98.3969 14.7157C97.9743 15.3674 97.3943 15.8759 96.6566 16.2411C95.9262 16.5992 95.1169 16.7782 94.2289 16.7782C92.5674 16.7782 91.2569 16.2518 90.2973 15.1991C89.3376 14.1392 88.8578 12.6783 88.8578 10.8163V10.6122C88.8578 8.82182 89.334 7.39311 90.2865 6.32605C91.239 5.25899 92.546 4.72546 94.2074 4.72546C95.6612 4.72546 96.8249 5.14083 97.6986 5.97156C98.5795 6.79513 99.0271 7.89441 99.0414 9.26941H96.1303C96.1159 8.66785 95.9298 8.18087 95.5717 7.80847C95.2136 7.42891 94.7409 7.23914 94.1537 7.23914C93.4304 7.23914 92.8826 7.50411 92.5102 8.03406C92.1449 8.55684 91.9623 9.40906 91.9623 10.5907V10.913C91.9623 12.1089 92.1449 12.9683 92.5102 13.4911C92.8754 14.0139 93.4304 14.2753 94.1752 14.2753ZM105.236 11.9012L104.118 13.0184V16.5634H101.014V0.0633545H104.118V9.20496L104.72 8.43152L107.696 4.94031H111.423L107.223 9.78503L111.788 16.5634H108.222L105.236 11.9012Z" fill="#183B56"/>
</svg>
