<svg width="136" height="40" viewBox="0 0 136 40" fill="none" xmlns="http://www.w3.org/2000/svg">
<path d="M24.9813 3.90196C24.4406 2.13038 22.5482 1.17645 20.7909 1.72155C19.0337 2.26665 18.0875 4.17452 18.6282 5.9461L27.2793 32.7924C27.8876 34.4278 29.6448 35.3817 31.3345 34.9047C33.0918 34.3596 34.1732 32.5199 33.6325 30.7483C33.6325 30.6802 24.9813 3.90196 24.9813 3.90196Z" fill="#8C98A4"/>
<path d="M11.5991 8.33093C11.0584 6.55934 9.16597 5.60541 7.40871 6.15052C5.65144 6.69562 4.70522 8.60348 5.24592 10.3751L13.8971 37.2214C14.5053 38.8567 16.2626 39.8107 17.9523 39.3337C19.7096 38.7886 20.7909 36.9489 20.2502 35.1773C20.2502 35.1091 11.5991 8.33093 11.5991 8.33093Z" fill="#8C98A4"/>
<path d="M35.9304 26.1831C37.6877 25.638 38.6339 23.7301 38.0932 21.9585C37.5525 20.1869 35.6601 19.233 33.9028 19.7781L7.20595 28.4316C5.58386 29.0449 4.63764 30.8164 5.11075 32.5199C5.65144 34.2915 7.47629 35.3817 9.23356 34.8366C9.36873 34.8366 35.9304 26.1831 35.9304 26.1831Z" fill="#8C98A4"/>
<path d="M12.7481 33.7464C14.5053 33.2013 16.7357 32.4518 19.1013 31.6341C18.5606 29.8625 17.8171 27.614 17.0061 25.2291L10.6529 27.3414L12.7481 33.7464Z" fill="#8C98A4"/>
<path d="M26.1979 29.3174C28.631 28.4998 30.8614 27.8184 32.5511 27.2051C32.0104 25.4336 31.2669 23.185 30.4559 20.8002L24.1027 22.9124L26.1979 29.3174Z" fill="#8C98A4"/>
<path d="M31.5373 12.6236C33.2946 12.0785 34.2408 10.1707 33.7001 8.39907C33.1594 6.62748 31.2669 5.67355 29.5097 6.21865L2.88037 14.9403C1.25828 15.5535 0.312065 17.3251 0.785175 19.0286C1.32587 20.8683 3.15072 21.9585 4.90799 21.3453C4.97557 21.3453 31.5373 12.6236 31.5373 12.6236Z" fill="#8C98A4"/>
<path d="M8.42251 20.1869C10.1798 19.6418 12.4101 18.8923 14.7757 18.0747C13.9647 15.6217 13.2888 13.3731 12.6805 11.6697L6.32731 13.782L8.42251 20.1869Z" fill="#8C98A4"/>
<path d="M21.8048 15.8261C24.2379 15.0084 26.4683 14.3271 28.1579 13.7138C27.3469 11.2609 26.671 9.01231 26.0627 7.30886L19.7096 9.42114L21.8048 15.8261Z" fill="#8C98A4"/>
<path d="M62.8977 10.9883C64.0467 11.5334 64.1818 11.8741 63.2356 13.6457C62.2894 15.4854 62.0866 15.5536 60.8701 15.0766C59.3832 14.4633 57.5583 13.9864 56.3417 13.9864C54.3817 13.9864 53.0976 14.6678 53.0976 15.758C53.0976 19.3011 64.3846 17.3933 64.3846 25.0247C64.3846 28.8404 61.1404 31.3615 56.2742 31.3615C53.7058 31.3615 50.5293 30.4758 48.3665 29.3855C47.2851 28.8404 47.2175 28.4998 48.1637 26.66C48.9748 25.0929 49.2451 24.8884 50.3941 25.3654C52.2865 26.1831 54.5845 26.7963 56.2066 26.7963C58.0314 26.7963 59.1804 26.0468 59.1804 24.9566C59.1804 21.4816 47.6906 23.1169 47.6906 15.758C47.6906 11.8741 50.9348 9.21672 55.7335 9.21672C58.0314 9.42114 60.9377 10.1025 62.8977 10.9883Z" fill="#8C98A4"/>
<path d="M72.0219 1.9941V30.3395C72.0219 30.7483 71.5488 31.2253 70.9405 31.2253H67.9667C67.2908 31.2253 66.8853 30.7483 66.8853 30.3395V1.9941C66.8853 0.563207 67.2908 0.495069 69.4536 0.495069C71.8868 0.426931 72.0219 0.631345 72.0219 1.9941Z" fill="#8C98A4"/>
<path fill-rule="evenodd" clip-rule="evenodd" d="M92.9739 30.0669V17.8702C92.9739 12.5555 89.3918 9.42114 83.7145 9.42114C81.1462 9.42114 78.3075 10.2388 76.2799 11.6016C75.1985 12.2829 75.1985 12.6236 76.2799 14.3271C77.4289 16.0305 77.6317 16.0987 78.7131 15.4854C80.0648 14.6678 81.7545 14.1227 83.1738 14.1227C86.1476 14.1227 87.9049 15.4854 87.9049 17.734V19.1649C86.4856 18.5516 84.7283 18.2109 82.8359 18.2109C77.7668 18.2109 74.4551 20.9364 74.4551 25.0247C74.4551 28.8404 77.4289 31.4297 81.8221 31.4297C84.12 31.4297 86.418 30.4758 87.9725 28.7042L87.9049 29.9988C87.8373 30.6802 88.3104 31.1571 88.9863 31.1571H91.8925C92.5008 31.1571 92.9739 30.7483 92.9739 30.0669ZM82.4303 27.3414C80.6055 27.3414 79.3889 26.3875 79.3889 24.9566C79.3889 23.185 81.2138 21.8222 83.9173 21.8222C85.2014 21.8222 86.6883 22.0267 87.8373 22.5036V24.4115C86.6883 26.2512 84.6607 27.3414 82.4303 27.3414Z" fill="#8C98A4"/>
<path d="M113.047 11.0564C114.129 11.6697 114.129 12.0104 112.98 13.8501C111.898 15.5536 111.696 15.6898 110.479 15.0766C109.6 14.5996 108.113 14.1908 106.964 14.1908C103.247 14.1908 100.814 16.6438 100.814 20.3913C100.814 24.2752 103.247 26.8644 106.964 26.8644C108.249 26.8644 109.871 26.3875 110.885 25.7742C111.966 25.161 112.169 25.161 113.318 26.8644C114.331 28.4316 114.331 28.7723 113.385 29.4537C111.763 30.612 109.127 31.4978 106.829 31.4978C100.003 31.4978 95.4071 27.0689 95.4071 20.4595C95.4071 13.8501 100.003 9.48928 106.897 9.48928C109.06 9.42114 111.493 10.1025 113.047 11.0564Z" fill="#8C98A4"/>
<path d="M135.419 28.4998C136.297 29.59 135.959 29.9988 133.797 30.7483C131.634 31.566 131.296 31.4978 130.552 30.4758L124.402 22.2311L121.631 24.8884V30.2713C121.631 30.6802 121.158 31.1571 120.549 31.1571H117.576C116.9 31.1571 116.494 30.6802 116.494 30.2713V1.9941C116.494 0.563206 116.9 0.495069 119.063 0.495069C121.563 0.495069 121.631 0.699482 121.631 1.9941V18.0747L130.012 9.96624C130.958 9.08045 131.431 9.14859 133.121 10.2388C134.946 11.3971 135.081 11.7378 134.202 12.6236L127.984 18.756L135.419 28.4998Z" fill="#8C98A4"/>
</svg>
